<svg width="130" height="50" viewBox="0 0 130 50" fill="none" xmlns="http://www.w3.org/2000/svg">
<path fill-rule="evenodd" clip-rule="evenodd" d="M28.638 47.122V40.6568C28.7025 40.667 28.7664 40.681 28.8293 40.6989C30.5854 41.6709 32.6271 41.9906 34.5951 41.6018C36.0007 41.391 37.3371 40.8518 38.4967 40.0278C39.6562 39.2039 40.6065 38.1181 41.2707 36.8582C42.3895 34.7977 42.8626 32.4468 42.6282 30.1124C42.4183 27.6003 41.8118 25.2612 40.1744 23.2309C39.2511 22.1676 38.0471 21.3874 36.701 20.9802C35.3549 20.573 33.9215 20.5554 32.5659 20.9293C31.1996 21.3526 29.9771 22.1478 29.0345 23.2263C28.8873 23.3755 28.7315 23.5161 28.568 23.6473L28.4561 23.5678L28.6333 20.6533H28.1995C27.5821 20.726 26.9648 20.799 26.3474 20.872C24.4221 21.0996 22.4962 21.3272 20.5676 21.5468C20.2784 21.5796 20.2038 21.6872 20.3064 21.9632C20.3816 21.973 20.4564 21.9848 20.531 21.9967C20.7063 22.0245 20.8807 22.0521 21.0574 22.0521C22.7322 22.1971 23.0261 22.5152 23.0261 24.2087V47.0705C23.026 47.3537 23.0073 47.6365 22.9701 47.9172C22.9671 48.1315 22.8887 48.3377 22.7487 48.4995C22.6087 48.6614 22.4161 48.7683 22.205 48.8014C22.1371 48.8137 22.0692 48.8261 22.0014 48.8385C21.529 48.9249 21.0589 49.0108 20.5816 49.068C20.3111 49.1008 20.1991 49.1803 20.3111 49.4657H31.3437C31.437 49.199 31.3717 49.0961 31.0964 49.068C30.6062 49.0277 30.1187 48.9589 29.6363 48.8622C28.8992 48.7172 28.7033 48.4739 28.638 47.7161V47.122ZM28.6255 32.6486C28.6317 31.9708 28.638 31.2922 28.638 30.613C28.638 30.1508 28.6384 29.6903 28.6389 29.2312C28.6405 27.6271 28.6421 26.0381 28.624 24.4379C28.6135 24.3004 28.6416 24.1626 28.7051 24.0403C28.7685 23.9179 28.8649 23.8158 28.9832 23.7455C29.9815 23.0625 31.0265 22.5573 32.286 22.7023C32.9026 22.7791 33.4928 22.9992 34.0095 23.3452C34.5262 23.6912 34.9552 24.1535 35.2622 24.6952C36.0107 25.98 36.453 27.4209 36.5544 28.9055C36.8805 31.5268 36.7701 34.1843 36.2279 36.7693C36.0238 37.9558 35.5444 39.0775 34.8284 40.044C34.4849 40.5081 34.0238 40.8715 33.4929 41.0965C32.9621 41.3215 32.3808 41.3999 31.8095 41.3235C31.2383 41.2471 30.6978 41.0188 30.2443 40.6622C29.7907 40.3055 29.4407 39.8336 29.2305 39.2955C28.8869 38.4686 28.6866 37.589 28.638 36.6945C28.6007 35.3512 28.6131 34.0016 28.6255 32.6486Z" fill="white"/>
<path d="M94.414 21.0512H103.679C103.8 21.3273 103.679 21.4208 103.413 21.5191C102.677 21.6892 101.957 21.9241 101.262 22.2208C100.724 22.4992 100.248 22.8843 99.8627 23.3529C98.4632 25.0276 97.115 26.7492 95.7342 28.4707C95.7574 28.5306 95.7855 28.5885 95.8182 28.6438C98.3062 32.3208 100.794 35.9993 103.282 39.6794C103.641 40.3122 104.232 40.7802 104.929 40.9846C105.031 41.008 105.101 41.1624 105.181 41.2559L105.111 41.3635H104.7C102.419 41.3635 100.138 41.3635 97.8568 41.3635C97.7283 41.3756 97.5992 41.3468 97.4879 41.2814C97.3766 41.2159 97.2886 41.117 97.2363 40.9986C95.6549 38.3321 94.0688 35.6656 92.4548 33.0178C92.1331 32.4991 91.7423 32.0269 91.2932 31.6144C90.896 31.3385 90.4668 31.1123 90.015 30.9407C90.015 31.2027 89.987 31.3384 89.987 31.4694V39.1555C89.987 39.2865 89.987 39.4128 89.987 39.5391C90.0196 40.2969 90.2436 40.5823 90.976 40.732C91.4425 40.8302 91.9463 40.877 92.4361 40.9472C92.7113 40.9846 92.7113 40.9846 92.6647 41.3448H81.6367C81.5248 41.0548 81.6367 40.9706 81.912 40.9378C82.4251 40.8817 82.9383 40.7788 83.4514 40.6992C83.681 40.6696 83.8927 40.5593 84.049 40.3881C84.2052 40.2168 84.296 39.9956 84.3051 39.7636C84.3324 39.512 84.3433 39.2588 84.3377 39.0058C84.3377 31.0998 84.3377 23.1969 84.3377 15.2972C84.3377 14.9463 84.3004 14.5955 84.2678 14.2446C84.2524 14.0015 84.1491 13.7724 83.9774 13.6002C83.8056 13.428 83.5772 13.3244 83.3348 13.309C82.8683 13.2248 82.4018 13.1827 81.9353 13.0985C81.814 13.0751 81.7114 12.9581 81.5994 12.8833C81.7067 12.8038 81.8047 12.6681 81.9213 12.6541C84.4373 12.3422 86.9517 12.0428 89.4645 11.7559C89.6185 11.7559 89.7724 11.7559 89.973 11.7559V30.7396C91.9836 30.8752 93.733 30.4776 95.0111 28.8122C95.9861 27.5398 97.0031 26.2954 97.9687 25.0089C99.1256 23.4605 98.5099 22.2816 96.8165 21.7997C96.1188 21.6342 95.409 21.5247 94.6939 21.4723C94.414 21.4395 94.2974 21.3647 94.414 21.0512Z" fill="white"/>
<path d="M17.8061 21.2468C17.4516 21.4059 17.3863 21.1954 17.3023 20.9427C16.7945 19.1778 15.9917 17.5121 14.9279 16.0167C13.9949 14.7817 12.9079 13.6777 11.3732 13.2099C9.41388 12.6111 7.57122 12.8403 5.99913 14.2344C4.93086 15.17 4.74892 16.4658 4.93552 17.8084C5.0442 18.5445 5.30854 19.2488 5.71082 19.8741C6.11309 20.4994 6.64402 21.0312 7.268 21.4339C8.96138 22.5941 10.7527 23.6093 12.5114 24.6665C13.8913 25.4318 15.1834 26.3464 16.3647 27.3938C18.6971 29.63 19.3689 32.3433 18.5665 35.4355C17.6802 38.8645 15.2357 40.6469 11.9656 41.4281C9.16664 42.0971 6.36766 41.7369 3.62467 40.9603C2.60813 40.6378 1.6099 40.2598 0.634434 39.8282C0.568367 39.7931 0.510754 39.7439 0.465629 39.6841C0.420504 39.6243 0.388957 39.5553 0.373196 39.482C0.237913 37.143 0.121289 34.8367 0 32.5117C0 32.5117 0 32.4602 0.0233248 32.4088C0.317217 32.2824 0.401186 32.4602 0.457166 32.7035C0.786924 34.1961 1.34058 35.6298 2.09923 36.9559C3.40075 39.1312 5.12679 40.7732 7.7205 41.255C9.87571 41.6573 11.779 41.1802 13.1598 39.3838C14.5407 37.5874 14.4194 34.5607 13.0012 32.7783C12.1173 31.7317 11.0442 30.8619 9.83839 30.2147C8.0937 29.2043 6.32101 28.2453 4.59032 27.2207C3.37188 26.536 2.30525 25.6097 1.45547 24.4981C0.894243 23.7513 0.49306 22.8962 0.277111 21.9865C0.0611613 21.0768 0.03511 20.1321 0.200593 19.2119C0.667089 16.2927 2.40245 14.3981 5.09413 13.3502C7.96774 12.2321 10.9113 12.3304 13.8503 13.0695C14.9325 13.3408 15.9728 13.7946 17.0318 14.1595C17.1529 14.1891 17.2597 14.2607 17.3332 14.3618C17.4066 14.4629 17.442 14.5868 17.4329 14.7115C17.5216 16.4471 17.6289 18.178 17.7268 19.9089C17.7548 20.358 17.7828 20.8071 17.8061 21.2468Z" fill="white"/>
<path fill-rule="evenodd" clip-rule="evenodd" d="M64.0376 39.4326C64.0688 39.3987 64.1002 39.3646 64.1339 39.3327L64.0499 39.2205C63.9643 39.2623 63.8787 39.3044 63.7931 39.3465C63.496 39.4927 63.1983 39.6392 62.8977 39.7772C61.8901 40.2356 61.0924 39.7912 61.0924 38.5889C61.1172 34.5065 61.1048 30.4288 61.055 26.3557C61.0271 24.2085 59.9448 22.6273 58.1021 21.6074C56.5643 20.8175 54.8256 20.508 53.1106 20.7186C50.9252 20.8178 48.8471 21.6972 47.2514 23.198C46.3038 24.0302 45.606 25.1107 45.2362 26.3183C44.919 27.441 45.2688 28.3299 46.1692 28.7602C46.5705 28.9552 47.0107 29.0566 47.4567 29.0566C47.9027 29.0566 48.3429 28.9552 48.7442 28.7602C49.8592 28.2503 49.9898 27.3287 49.0941 26.5007C48.9589 26.3695 48.813 26.2462 48.6661 26.1222C48.4936 25.9765 48.3198 25.8297 48.1611 25.668C47.8324 25.3611 47.6345 24.9388 47.6084 24.4892C47.5823 24.0396 47.7302 23.5972 48.0212 23.2541C49.346 21.5419 52.5322 21.2893 54.0856 22.7863C54.509 23.193 54.8477 23.6798 55.0823 24.2186C55.3169 24.7574 55.4427 25.3375 55.4524 25.9253C55.4851 27.3755 55.4851 28.8304 55.4851 30.2853C55.4851 30.5426 55.4058 30.6596 55.1352 30.6876C54.943 30.7081 54.7507 30.7279 54.5584 30.7478C53.7422 30.832 52.9258 30.9162 52.1217 31.0525C50.2608 31.2994 48.4761 31.9508 46.8922 32.9612C45.3015 34.0371 44.4151 35.4827 44.5598 37.4568C44.5864 38.4792 44.969 39.46 45.6413 40.229C46.3136 40.998 47.2332 41.5068 48.2404 41.6671C49.1731 41.8329 50.1306 41.7933 51.0465 41.5509C51.9624 41.3086 52.8147 40.8693 53.5445 40.2637C54.0022 39.9145 54.4243 39.5185 54.8569 39.1126C55.0504 38.9311 55.246 38.7476 55.4478 38.5655V38.9819C55.5037 40.376 56.0682 41.2695 57.2204 41.5455C57.8875 41.7059 58.577 41.7502 59.259 41.6765C61.0131 41.4753 62.4918 40.6192 63.8913 39.576C63.9444 39.5339 63.9909 39.4835 64.0376 39.4326ZM54.7046 31.1505C54.9395 31.0966 55.1778 31.0419 55.4198 30.9823C55.4263 31.0912 55.4328 31.1768 55.4384 31.25C55.4448 31.3339 55.4499 31.4014 55.4524 31.4689V37.7282C55.473 37.8593 55.4481 37.9935 55.3819 38.1084C55.3156 38.2234 55.2121 38.3121 55.0886 38.3597C54.461 38.6899 53.8013 38.9548 53.12 39.1503C52.8316 39.2268 52.5305 39.2428 52.2357 39.1974C51.9408 39.152 51.6585 39.046 51.4063 38.8862C51.1541 38.7264 50.9375 38.5162 50.7701 38.2686C50.6026 38.0211 50.4878 37.7415 50.4329 37.4475C50.0675 36.2066 50.1366 34.8776 50.6289 33.6816C50.86 33.1716 51.2 32.7188 51.6248 32.3551C52.0496 31.9913 52.5488 31.7255 53.0873 31.5765C53.6091 31.402 54.1471 31.2785 54.7046 31.1505Z" fill="white"/>
<path d="M76.846 41.3393C76.7247 41.3393 76.6034 41.3393 76.4775 41.3393H65.4075C65.3376 41.3393 65.2583 41.3393 65.2023 41.3393C65.1173 41.2917 65.0376 41.2352 64.9644 41.1709C65.039 41.0914 65.109 40.9651 65.1976 40.9464C65.6921 40.8528 66.1959 40.792 66.6951 40.7031C66.8302 40.7001 66.9635 40.6701 67.087 40.6149C67.2104 40.5596 67.3217 40.4802 67.4142 40.3814C67.5067 40.2825 67.5787 40.1661 67.6258 40.039C67.6729 39.9119 67.6943 39.7767 67.6887 39.6412C67.7159 39.3895 67.7268 39.1364 67.7213 38.8833C67.7213 33.9994 67.7213 29.1155 67.7213 24.2315C67.7133 23.8096 67.6728 23.3888 67.6001 22.9731C67.5869 22.8021 67.5159 22.6408 67.3988 22.5157C67.2818 22.3907 67.1256 22.3095 66.9563 22.2855C66.4058 22.1825 65.8507 22.0937 65.3002 21.972C65.1789 21.972 65.0763 21.827 64.969 21.7522C65.0763 21.6773 65.1836 21.5557 65.3002 21.537C67.7882 21.2251 70.2762 20.9288 72.7642 20.6481C72.9321 20.6247 73.1 20.6481 73.3333 20.6201C73.2726 22.1779 73.212 23.7123 73.1514 25.2467L73.2866 25.2935C73.3846 25.1718 73.4872 25.0596 73.5759 24.9333C74.2523 23.9976 74.8727 23.062 75.6144 22.1919C76.3805 21.3269 77.4429 20.7825 78.5907 20.6668C79.0744 20.5837 79.5718 20.6455 80.0206 20.8444C80.4695 21.0432 80.85 21.3704 81.1144 21.7849C81.4003 22.1918 81.5645 22.672 81.5876 23.1692C81.6107 23.6664 81.4919 24.1599 81.2451 24.5918C80.6993 25.6537 79.9482 26.0607 78.9126 25.8361C78.5491 25.7374 78.2116 25.5601 77.9236 25.3169C77.5457 25.0268 77.2379 24.6526 76.8833 24.3298C76.6673 24.0898 76.3698 23.9391 76.049 23.9071C75.7281 23.8751 75.4069 23.9641 75.148 24.1567C74.5622 24.5886 74.0044 25.0573 73.4779 25.5601C73.3699 25.691 73.3165 25.8585 73.3286 26.0279C73.3286 30.4565 73.3286 34.8867 73.3286 39.3184C73.3286 40.254 73.6272 40.5955 74.5415 40.7218C75.2226 40.8201 75.913 40.8809 76.5988 40.9277C76.8926 40.9698 76.9393 41.082 76.846 41.3393Z" fill="white"/>
<path d="M117.011 0.191135C113.746 7.59188 108.064 10.3379 105.815 11.1659C105.753 11.1883 105.699 11.2295 105.66 11.284C105.622 11.3384 105.602 11.4034 105.602 11.47C105.602 11.5366 105.622 11.6016 105.66 11.6561C105.699 11.7105 105.753 11.7517 105.815 11.7741C108.059 12.6021 113.746 15.3482 117.011 22.7489C117.037 22.8058 117.078 22.8542 117.13 22.8881C117.182 22.922 117.243 22.94 117.305 22.94C117.367 22.94 117.428 22.922 117.48 22.8881C117.533 22.8542 117.574 22.8058 117.599 22.7489C120.865 15.3482 126.547 12.6021 128.795 11.7741C128.858 11.7517 128.912 11.7105 128.95 11.6561C128.988 11.6016 129.009 11.5366 129.009 11.47C129.009 11.4034 128.988 11.3384 128.95 11.284C128.912 11.2295 128.858 11.1883 128.795 11.1659C126.551 10.3379 120.865 7.59188 117.599 0.191135C117.574 0.134221 117.533 0.0858849 117.48 0.051967C117.428 0.0180491 117.367 0 117.305 0C117.243 0 117.182 0.0180491 117.13 0.051967C117.078 0.0858849 117.037 0.134221 117.011 0.191135Z" fill="#BA394B"/>
</svg>
